<svg width="200" height="100" viewBox="0 0 200 100" fill="none" xmlns="http://www.w3.org/2000/svg">
    
    <rect x="0" y="0" width="200" height="100" fill="#E0F7FA"/> 
    
    <circle cx="170" cy="30" r="15" fill="#FFD700"/> 
    
    <path d="M0 80 L50 40 L100 80 L0 80Z" fill="#81C784"/>
    <path d="M70 80 L120 50 L170 80 L70 80Z" fill="#A5D6A7"/> 
    
    <path d="M25 80 L35 60 L45 80 Z" fill="#4CAF50"/>
    <rect x="34" y="80" width="2" height="10" fill="#795548"/>
    <path d="M140 80 L150 55 L160 80 Z" fill="#66BB6A"/>
    <rect x="149" y="80" width="2" height="10" fill="#795548"/>

    <g transform="translate(60, 55)">
        <rect x="0" y="0" width="70" height="30" rx="5" fill="#FFCC80"/> 
        <path d="M0 5 C0 2.23858 2.23858 0 5 0 H65 C67.7614 0 70 2.23858 70 5 V30 H0 V5 Z" fill="#FFAB40"/> 
        <rect x="5" y="5" width="20" height="20" rx="3" fill="#FFFFFF" opacity="0.8"/> 
        <rect x="35" y="5" width="20" height="20" rx="3" fill="#FFFFFF" opacity="0.8"/> 
        <circle cx="15" cy="32" r="5" fill="#424242"/> 
        <circle cx="55" cy="32" r="5" fill="#424242"/> 
        <rect x="13" y="31" width="4" height="2" fill="#212121"/> 
        <rect x="53" y="31" width="4" height="2" fill="#212121"/> 
        <path d="M68 25 H75 V30 H68 V25 Z" fill="#757575"/> 
    </g>
    
    <rect x="0" y="90" width="200" height="10" fill="#6D4C41"/> 
</svg>